<?xml version="1.0" standalone="no"?>
<!DOCTYPE svg PUBLIC "-//W3C//DTD SVG 1.1//EN" "http://www.w3.org/Graphics/SVG/1.1/DTD/svg11.dtd" >
<svg xmlns="http://www.w3.org/2000/svg">
<metadata></metadata>
<defs>
<font id="vermin_vibes_2_blackregular" horiz-adv-x="1500" >
<font-face units-per-em="2048" ascent="1638" descent="-410" />
<missing-glyph horiz-adv-x="508" />
<glyph unicode="&#xd;" horiz-adv-x="508" />
<glyph horiz-adv-x="0" />
<glyph horiz-adv-x="0" />
<glyph unicode=" "  horiz-adv-x="508" />
<glyph unicode="&#x09;" horiz-adv-x="508" />
<glyph unicode="&#xa0;" horiz-adv-x="508" />
<glyph unicode="!" horiz-adv-x="500" d="M0 0v400h400v-400h-400zM0 500v900h400v-900h-400z" />
<glyph unicode="&#x22;" horiz-adv-x="1000" d="M0 1200v200h400v-200q0 -400 -200 -400t-200 400zM500 1200v200h400v-200q0 -400 -200 -400t-200 400z" />
<glyph unicode="#" d="M0 200v400h200v200h-200v400h200v200h400v-200h200v200h400v-200h200v-400h-200v-200h200v-400h-200v-200h-400v200h-200v-200h-400v200h-200zM600 600h200v200h-200v-200z" />
<glyph unicode="$" d="M0 0h900q500 0 500 500q0 400 -400 400h-500q-100 0 -100 49q0 51 100 51h900v400h-900q-500 0 -500 -500q0 -400 500 -400h400q100 0 100 -54q0 -46 -100 -46h-900v-400zM500 -200h400v1800h-400v-1800z" />
<glyph unicode="%" d="M0 0l900 1400h500l-900 -1400h-500zM0 1000v400h400v-400h-400zM1000 0v400h400v-400h-400z" />
<glyph unicode="&#x26;" d="M0 500q0 -500 500 -500h900v400h-200v100h200v400h-200v200h-400v-200h-300q-100 0 -100 49q0 51 100 51h200v400h-200q-500 0 -500 -500q0 -200 200 -200q-200 0 -200 -200zM400 446q0 54 100 54h300v-100h-300q-100 0 -100 46z" />
<glyph unicode="'" horiz-adv-x="500" d="M0 1200v200h400v-200q0 -400 -200 -400t-200 400z" />
<glyph unicode="(" horiz-adv-x="700" d="M0 500q0 -500 500 -500h100v400h-100q-100 0 -100 100v400q0 100 100 100h100v400h-100q-500 0 -500 -500v-400z" />
<glyph unicode=")" horiz-adv-x="700" d="M0 0h100q500 0 500 500v400q0 500 -500 500h-100v-400h100q100 0 100 -100v-400q0 -100 -100 -100h-100v-400z" />
<glyph unicode="*" horiz-adv-x="1499" d="M-1 523l1212 700l200 -346l-1212 -700zM-1 877l200 346l1212 -700l-200 -346zM505 0v1400h400v-1400h-400z" />
<glyph unicode="+" horiz-adv-x="1300" d="M0 500v400h1200v-400h-1200zM400 100v1200h400v-1200h-400z" />
<glyph unicode="," horiz-adv-x="500" d="M0 -200v600h400v-200q0 -400 -400 -400z" />
<glyph unicode="-" horiz-adv-x="1300" d="M0 500v400h1200v-400h-1200z" />
<glyph unicode="." horiz-adv-x="500" d="M0 0v400h400v-400h-400z" />
<glyph unicode="/" d="M0 0l900 1400h500l-900 -1400h-500z" />
<glyph unicode="0" d="M0 700q0 700 700 700t700 -700t-700 -700t-700 700zM400 700q0 -300 300 -300t300 300t-300 300t-300 -300z" />
<glyph unicode="1" horiz-adv-x="700" d="M0 1000h100q100 0 100 -100v-900h400v900q0 500 -500 500h-100v-400z" />
<glyph unicode="2" d="M0 0h1400v400h-1000v46q0 54 100 54h400q500 0 500 400q0 500 -500 500h-900v-400h900q100 0 100 -51q0 -49 -100 -49h-500q-400 0 -400 -400v-500z" />
<glyph unicode="3" d="M0 0v400h900q100 0 100 55q0 45 -100 45h-900v400h900q100 0 100 49q0 51 -100 51h-900v400h900q500 0 500 -500q0 -200 -200 -200q200 0 200 -200q0 -500 -500 -500h-900z" />
<glyph unicode="4" d="M0 1000q0 -500 500 -500h500v-500h400v1400h-400v-500h-500q-100 0 -100 100v400h-400v-400z" />
<glyph unicode="5" d="M0 0h900q500 0 500 500q0 400 -400 400h-600v100h1000v400h-1400v-900h900q100 0 100 -54q0 -46 -100 -46h-900v-400z" />
<glyph unicode="6" d="M0 500v400q0 500 500 500h400q500 0 500 -451h-400q0 51 -100 51h-400q-100 0 -100 -100h500q500 0 500 -400q0 -500 -500 -500h-400q-500 0 -500 500zM400 500q0 -100 100 -100h400q100 0 100 60q0 40 -100 40h-500z" />
<glyph unicode="7" d="M0 0l648 1000h-648v400h1400l-900 -1400h-500z" />
<glyph unicode="8" d="M0 500q0 200 200 200q-200 0 -200 200q0 500 500 500h400q500 0 500 -500q0 -200 -200 -200q200 0 200 -200q0 -500 -500 -500h-400q-500 0 -500 500zM400 452q0 -52 100 -52h400q100 0 100 47q0 53 -100 53h-400q-100 0 -100 -48zM400 947q0 -47 100 -47h400 q100 0 100 45q0 55 -100 55h-400q-100 0 -100 -53z" />
<glyph unicode="9" d="M0 451h400q0 -51 100 -51h400q100 0 100 100h-500q-500 0 -500 400q0 500 500 500h400q500 0 500 -500v-400q0 -500 -500 -500h-400q-500 0 -500 451zM400 940q0 -40 100 -40h500q0 100 -100 100h-400q-100 0 -100 -60z" />
<glyph unicode=":" horiz-adv-x="500" d="M0 200v400h400v-400h-400zM0 800v400h400v-400h-400z" />
<glyph unicode=";" horiz-adv-x="500" d="M0 0v600h400v-200q0 -400 -400 -400zM0 800v400h400v-400h-400z" />
<glyph unicode="&#x3c;" horiz-adv-x="800" d="M0 700l700 700v-600l-100 -100l100 -100v-600z" />
<glyph unicode="=" horiz-adv-x="1300" d="M0 200v400h1200v-400h-1200zM0 800v400h1200v-400h-1200z" />
<glyph unicode="&#x3e;" horiz-adv-x="800" d="M0 0v600l100 100l-100 100v600l700 -700z" />
<glyph unicode="?" d="M0 1000v400h900q500 0 500 -500q0 -400 -400 -400h-700v400h600q100 0 100 53q0 47 -100 47h-900zM300 0h400v400h-400v-400z" />
<glyph unicode="@" horiz-adv-x="1300" d="M0 700q0 600 600 600t600 -600q0 -300 -500 -300v51q-40 -51 -100 -51q-300 0 -300 300t300 300q100 0 100 -56v56h200v-359q100 4 100 59q0 400 -400 400t-400 -400t400 -400h400v-200h-400q-600 0 -600 600zM500 700q0 -100 100 -100t100 100t-100 100t-100 -100z" />
<glyph unicode="A" d="M0 0v700q0 700 700 700t700 -700v-700h-400v300h-600v-300h-400zM400 700h600q0 300 -300 300t-300 -300z" />
<glyph unicode="B" d="M0 0v1400h900q500 0 500 -500q0 -200 -200 -200q200 0 200 -200q0 -500 -500 -500h-900zM400 400h500q100 0 100 50t-100 50h-500v-100zM400 900h500q100 0 100 50t-100 50h-500v-100z" />
<glyph unicode="C" d="M0 700q0 700 700 700t700 -644h-400q0 244 -300 244t-300 -300t300 -300t300 248h400q0 -648 -700 -648t-700 700z" />
<glyph unicode="D" d="M0 0h700q700 0 700 700t-700 700h-700v-1400zM400 400v600h300q300 0 300 -300t-300 -300h-300z" />
<glyph unicode="E" d="M0 0v400h1400v-400h-1400zM0 500v400h1400v-400h-1400zM0 1000v400h1400v-400h-1400z" />
<glyph unicode="F" d="M0 0v1400h1400v-400h-1000v-100h1000v-400h-1000v-500h-400z" />
<glyph unicode="G" d="M0 700q0 700 700 700h700v-400h-700q-300 0 -300 -300t300 -300h300v100h-300v400h700v-900h-700q-700 0 -700 700z" />
<glyph unicode="H" d="M0 0h400v500h600v-500h400v1400h-400v-500h-600v500h-400v-1400z" />
<glyph unicode="I" horiz-adv-x="500" d="M0 0h400v1400h-400v-1400z" />
<glyph unicode="J" d="M0 700h400q0 -300 300 -300t300 300v700h400v-700q0 -700 -700 -700t-700 700z" />
<glyph unicode="K" d="M0 0h400v400l400 -400h600l-700 700l700 700h-600l-400 -400v400h-400v-1400z" />
<glyph unicode="L" d="M0 0v1400h400v-1000h1000v-400h-1400z" />
<glyph unicode="M" d="M0 0v1400l700 -700l700 700v-1400h-400v400l-300 -300l-300 300v-400h-400z" />
<glyph unicode="N" d="M0 0v1700l1000 -1000v700h400v-1700l-1000 1000v-700h-400z" />
<glyph unicode="O" d="M0 700q0 700 700 700t700 -700t-700 -700t-700 700zM400 700q0 -300 300 -300t300 300t-300 300t-300 -300z" />
<glyph unicode="P" d="M0 0v1400h900q500 0 500 -500q0 -400 -500 -400h-500v-500h-400zM400 900h500q100 0 100 50t-100 50h-500v-100z" />
<glyph unicode="Q" d="M0 700q0 700 700 700t700 -700q0 -200 -57 -343l657 -657h-600l-357 357q-143 -57 -343 -57q-700 0 -700 700zM300 800h600l100 -100q0 300 -300 300t-300 -300t300 -300z" />
<glyph unicode="R" d="M0 0v1400h900q500 0 500 -500q0 -276 -238 -362l838 -838h-600l-800 800h-200v-500h-400zM400 900h500q100 0 100 49q0 51 -100 51h-500v-100z" />
<glyph unicode="S" d="M0 0h900q500 0 500 500q0 400 -400 400h-500q-100 0 -100 49q0 51 100 51h900v400h-900q-500 0 -500 -500q0 -400 500 -400h400q100 0 100 -54q0 -46 -100 -46h-900v-400z" />
<glyph unicode="T" d="M0 1000v400h1400v-400h-500v-1000h-400v1000h-500z" />
<glyph unicode="U" horiz-adv-x="1501" d="M0 700q0 -700 700 -700t700 700v700h-400v-700q0 -300 -300 -300t-300 300v700h-400v-700z" />
<glyph unicode="V" d="M0 1400l1400 -1400v1400h-400v-400l-400 400h-600z" />
<glyph unicode="W" horiz-adv-x="1900" d="M0 1400h600l400 -400v400l400 -400v400h400v-1400l-400 400v-400z" />
<glyph unicode="X" d="M-300 0l700 700l-400 400v600l700 -700l400 400h600l-700 -700l400 -400v-600l-700 700l-400 -400h-600z" />
<glyph unicode="Y" d="M0 800v600l700 -700l700 700v-600l-500 -500v-300h-400v300z" />
<glyph unicode="Z" d="M0 0h1400v400h-600l600 1000h-1400v-400h600z" />
<glyph unicode="[" horiz-adv-x="700" d="M0 0h600v400h-200v600h200v400h-600v-1400z" />
<glyph unicode="\" d="M0 1400h500l900 -1400h-500z" />
<glyph unicode="]" horiz-adv-x="700" d="M0 0h600v1400h-600v-400h200v-600h-200v-400z" />
<glyph unicode="^" horiz-adv-x="900" d="M0 900h300l100 120l100 -120h300l-400 500z" />
<glyph unicode="_" d="M0 0v400h1400v-400h-1400z" />
<glyph unicode="`" horiz-adv-x="500" d="M0 1200q0 -400 400 -400v600h-400v-200z" />
<glyph unicode="a" d="M0 0v700q0 700 700 700t700 -700v-700h-400v300h-600v-300h-400zM400 700h600q0 300 -300 300t-300 -300z" />
<glyph unicode="b" d="M0 0v1400h900q500 0 500 -500q0 -200 -200 -200q200 0 200 -200q0 -500 -500 -500h-900zM400 400h500q100 0 100 50t-100 50h-500v-100zM400 900h500q100 0 100 50t-100 50h-500v-100z" />
<glyph unicode="c" d="M0 700q0 700 700 700t700 -644h-400q0 244 -300 244t-300 -300t300 -300t300 248h400q0 -648 -700 -648t-700 700z" />
<glyph unicode="d" d="M0 0h700q700 0 700 700t-700 700h-700v-1400zM400 400v600h300q300 0 300 -300t-300 -300h-300z" />
<glyph unicode="e" d="M0 0v400h1400v-400h-1400zM0 500v400h1400v-400h-1400zM0 1000v400h1400v-400h-1400z" />
<glyph unicode="f" d="M0 0v1400h1400v-400h-1000v-100h1000v-400h-1000v-500h-400z" />
<glyph unicode="g" d="M0 700q0 700 700 700h700v-400h-700q-300 0 -300 -300t300 -300h300v100h-300v400h700v-900h-700q-700 0 -700 700z" />
<glyph unicode="h" d="M0 0h400v500h600v-500h400v1400h-400v-500h-600v500h-400v-1400z" />
<glyph unicode="i" horiz-adv-x="500" d="M0 0h400v1400h-400v-1400z" />
<glyph unicode="j" d="M0 700h400q0 -300 300 -300t300 300v700h400v-700q0 -700 -700 -700t-700 700z" />
<glyph unicode="k" d="M0 0h400v400l400 -400h600l-700 700l700 700h-600l-400 -400v400h-400v-1400z" />
<glyph unicode="l" d="M0 0v1400h400v-1000h1000v-400h-1400z" />
<glyph unicode="m" d="M0 0v1400l700 -700l700 700v-1400h-400v400l-300 -300l-300 300v-400h-400z" />
<glyph unicode="n" d="M0 0v1700l1000 -1000v700h400v-1700l-1000 1000v-700h-400z" />
<glyph unicode="o" d="M0 700q0 700 700 700t700 -700t-700 -700t-700 700zM400 700q0 -300 300 -300t300 300t-300 300t-300 -300z" />
<glyph unicode="p" d="M0 0v1400h900q500 0 500 -500q0 -400 -500 -400h-500v-500h-400zM400 900h500q100 0 100 50t-100 50h-500v-100z" />
<glyph unicode="q" d="M0 700q0 700 700 700t700 -700q0 -200 -57 -343l357 -357h-600l-57 57q-143 -57 -343 -57q-700 0 -700 700zM300 800h600l100 -100q0 300 -300 300t-300 -300t300 -300z" />
<glyph unicode="r" d="M0 0v1400h900q500 0 500 -500q0 -276 -300 -362l300 -538h-468l-282 500h-250v-500h-400zM400 900h500q100 0 100 49q0 51 -100 51h-500v-100z" />
<glyph unicode="s" d="M0 0h900q500 0 500 500q0 400 -400 400h-500q-100 0 -100 49q0 51 100 51h900v400h-900q-500 0 -500 -500q0 -400 500 -400h400q100 0 100 -54q0 -46 -100 -46h-900v-400z" />
<glyph unicode="t" d="M0 1000v400h1400v-400h-500v-1000h-400v1000h-500z" />
<glyph unicode="u" horiz-adv-x="1501" d="M0 700q0 -700 700 -700t700 700v700h-400v-700q0 -300 -300 -300t-300 300v700h-400v-700z" />
<glyph unicode="v" d="M0 1400l1400 -1400v1400h-400v-400l-400 400h-600z" />
<glyph unicode="w" d="M0 0v1400h400v-400l300 300l300 -300v400h400v-1400l-700 700z" />
<glyph unicode="x" d="M-300 0l700 700l-400 400v600l700 -700l400 400h600l-700 -700l400 -400v-600l-700 700l-400 -400h-600z" />
<glyph unicode="y" d="M0 800v600l700 -700l700 700v-600l-500 -500v-300h-400v300z" />
<glyph unicode="z" d="M0 0h1400v400h-600l600 1000h-1400v-400h600z" />
<glyph unicode="{" horiz-adv-x="900" d="M0 500v400h200q0 500 500 500h100v-400h-100q-100 0 -100 -100v-400q0 -100 100 -100h100v-400h-100q-500 0 -500 500h-200z" />
<glyph unicode="|" horiz-adv-x="500" d="M0 -200v1800h400v-1800h-400z" />
<glyph unicode="}" horiz-adv-x="900" d="M0 0v400h100q100 0 100 100v400q0 100 -100 100h-100v400h100q500 0 500 -500h200v-400h-200q0 -500 -500 -500h-100z" />
<glyph unicode="~" d="M0 400v200q0 400 400 400t400 -151q0 -49 100 -49t100 100v100h400v-200q0 -400 -400 -400t-400 139q0 61 -100 61t-100 -100v-100h-400z" />
<glyph unicode="&#xa1;" horiz-adv-x="500" d="M0 0v900h400v-900h-400zM0 1000v400h400v-400h-400z" />
<glyph unicode="&#xa2;" d="M0 700q0 700 700 700t700 -644h-400q0 244 -300 244t-300 -300t300 -300t300 248h400q0 -648 -700 -648t-700 700zM500 -200v1800h400v-1800h-400z" />
<glyph unicode="&#xa3;" d="M0 0v400h200v100h-200v400h200q0 500 500 500h700v-400h-700q-100 0 -100 -100h600v-400h-600v-100h800v-400h-1400z" />
<glyph unicode="&#xa4;" d="M0 300l300 300l300 -300l-300 -300zM0 1100l300 300l300 -300l-300 -300zM200 700q0 500 500 500t500 -500t-500 -500t-500 500zM600 700q0 -100 100 -100t100 100t-100 100t-100 -100zM800 300l300 300l300 -300l-300 -300zM800 1100l300 300l300 -300l-300 -300z" />
<glyph unicode="&#xa5;" d="M0 1400h600l100 -100l100 100h600l-500 -500h400v-400h-400v-58h400v-390h-400v-52h-400v52h-400v399h400v49h-400v400h400z" />
<glyph unicode="&#xa6;" horiz-adv-x="500" d="M0 -100v700h300v-700h-300zM0 800v700h300v-700h-300z" />
<glyph unicode="&#xa7;" d="M0 0h1100q300 0 300 300v600q0 300 -300 300h-800q0 100 100 100h1000v300h-1100q-300 0 -300 -300v-600q0 -300 300 -300h800q0 -100 -100 -100h-1000v-300zM300 700v200h800v-200h-800z" />
<glyph unicode="&#xa8;" horiz-adv-x="800" d="M0 1500v300h300v-300h-300zM400 1500v300h300v-300h-300z" />
<glyph unicode="&#xa9;" d="M0 700q0 700 700 700t700 -700t-700 -700t-700 700zM200 700q0 -500 500 -500t500 500t-500 500t-500 -500zM400 700q0 300 300 300t300 -250h-200q0 50 -100 50t-100 -100t100 -100t100 50h200q0 -250 -300 -250t-300 300z" />
<glyph unicode="&#xaa;" horiz-adv-x="700" d="M0 900q0 200 200 200h200v100q0 59 -100 59t-100 -59h-200q0 200 300 200t300 -200v-500h-200v100q0 -100 -200 -100t-200 200zM204 911q0 -70 98 -70t98 70v69h-98q-98 0 -98 -69z" />
<glyph unicode="&#xab;" horiz-adv-x="1353" d="M0 700l700 700v-400l-300 -300l300 -300v-400zM554 700l700 700v-400l-300 -300l300 -300v-400z" />
<glyph unicode="&#xac;" d="M0 700h1000v-400h400v800h-1400v-400z" />
<glyph unicode="&#xad;" horiz-adv-x="1300" d="M0 500v400h1200v-400h-1200z" />
<glyph unicode="&#xae;" d="M0 700q0 700 700 700t700 -700t-700 -700t-700 700zM200 700q0 -500 500 -500t500 500t-500 500t-500 -500zM400 400v600h352q248 0 248 -244q0 -156 -119 -204l119 -152h-248l-92 136l-60 1v-137h-200zM600 749h136q43 1 43 33q1 35 -45 39h-134v-72z" />
<glyph unicode="&#xaf;" d="M0 1000v400h1400v-400h-1400z" />
<glyph unicode="&#xb0;" horiz-adv-x="900" d="M0 1000q0 166 117 283t283 117t283 -117t117 -283t-117 -283t-283 -117t-283 117t-117 283zM200 1000q0 -83 58.5 -141.5t141.5 -58.5t141.5 58.5t58.5 141.5t-58.5 141.5t-141.5 58.5t-141.5 -58.5t-58.5 -141.5z" />
<glyph unicode="&#xb1;" horiz-adv-x="1300" d="M0 0v400h1200v-400h-1200zM0 600v400h1200v-400h-1200zM400 200v1200h400v-1200h-400z" />
<glyph unicode="&#xb2;" horiz-adv-x="700" d="M0 700v100q300 200 400 351q0 107 -100 107q-100 -4 -100 -58h-200q0 200 300 200t300 -200q0 -100 -200 -300h200v-200h-600z" />
<glyph unicode="&#xb3;" horiz-adv-x="700" d="M0 900h200q0 -50 100 -50q100 -4 100 50q0 105 -100 100l-100 -4v160l100 -4q100 0 100 48q0 58 -100 58q-100 -4 -100 -58h-200q0 200 300 200t300 -200q0 -148 -100 -148q100 -4 100 -152q0 -200 -300 -200t-300 200z" />
<glyph unicode="&#xb4;" horiz-adv-x="500" d="M0 1200v200h400v-600q-400 0 -400 400z" />
<glyph unicode="&#xb5;" d="M0 -200h400v300q0 -100 300 -100t300 100v-100h400v1400h-400v-900q0 -100 -300 -100t-300 100v900h-400v-1600z" />
<glyph unicode="&#xb6;" d="M0 900q0 500 500 500h900v-1400h-400v1000h-100v-1000h-400v400q-500 0 -500 500z" />
<glyph unicode="&#xb7;" horiz-adv-x="508" />
<glyph unicode="&#xb8;" horiz-adv-x="0" d="M500 -200l100 200h200l-100 -100q200 0 200 -100t-100 -100h-200l100 60q100 0 100 40q0 41 -300 0z" />
<glyph unicode="&#xb9;" horiz-adv-x="700" d="M0 700v200h200v260q0 -60 -200 -60v200q200 0 200 100h200v-500h200v-200h-600z" />
<glyph unicode="&#xba;" horiz-adv-x="700" d="M0 1050q0 145 88 247.5t212 102.5t212 -102.5t88 -247.5t-88 -247.5t-212 -102.5t-212 102.5t-88 247.5zM200 1050q0 -62 29.5 -106t70.5 -44t70.5 44t29.5 106t-29.5 106t-70.5 44t-70.5 -44t-29.5 -106z" />
<glyph unicode="&#xbb;" horiz-adv-x="1353" d="M0 0v400l300 300l-300 300v400l700 -700zM554 0v400l300 300l-300 300v400l700 -700z" />
<glyph unicode="&#xbc;" d="M0 0l1100 1400h300l-1100 -1400h-300zM0 700v200h200v260q0 -60 -200 -60v200q200 0 200 100h200v-500h200v-200h-600zM800 400v300h200v-249q0 -51 52 -51h148v300h200v-700h-200v200h-200q-200 0 -200 200z" />
<glyph unicode="&#xbd;" d="M0 0l1100 1400h300l-1100 -1400h-300zM0 700v200h200v260q0 -60 -200 -60v200q200 0 200 100h200v-500h200v-200h-600zM800 0v100q300 200 400 351q0 107 -100 107q-100 -4 -100 -58h-200q0 200 300 200t300 -200q0 -100 -200 -300h200v-200h-600z" />
<glyph unicode="&#xbe;" d="M0 0l1100 1400h300l-1100 -1400h-300zM0 900h200q0 -50 100 -50q100 -4 100 50q0 105 -100 100l-100 -4v160l100 -4q100 0 100 48q0 58 -100 58q-100 -4 -100 -58h-200q0 200 300 200t300 -200q0 -148 -100 -148q100 -4 100 -152q0 -200 -300 -200t-300 200zM800 400v300 h200v-249q0 -51 52 -51h148v300h200v-700h-200v200h-200q-200 0 -200 200z" />
<glyph unicode="&#xbf;" d="M0 500q0 400 400 400h700v-400h-600q-100 0 -100 -53q0 -47 100 -47h900v-400h-900q-500 0 -500 500zM700 1000h400v400h-400v-400z" />
<glyph unicode="&#x2000;" horiz-adv-x="900" />
<glyph unicode="&#x2001;" horiz-adv-x="1800" />
<glyph unicode="&#x2002;" horiz-adv-x="900" />
<glyph unicode="&#x2003;" horiz-adv-x="1800" />
<glyph unicode="&#x2004;" horiz-adv-x="600" />
<glyph unicode="&#x2005;" horiz-adv-x="450" />
<glyph unicode="&#x2006;" horiz-adv-x="300" />
<glyph unicode="&#x2007;" horiz-adv-x="300" />
<glyph unicode="&#x2008;" horiz-adv-x="225" />
<glyph unicode="&#x2009;" horiz-adv-x="360" />
<glyph unicode="&#x200a;" horiz-adv-x="100" />
<glyph unicode="&#x2010;" horiz-adv-x="1300" d="M0 500v400h1200v-400h-1200z" />
<glyph unicode="&#x2011;" horiz-adv-x="1300" d="M0 500v400h1200v-400h-1200z" />
<glyph unicode="&#x2012;" horiz-adv-x="1300" d="M0 500v400h1200v-400h-1200z" />
<glyph unicode="&#x2013;" horiz-adv-x="1124" d="M0 500v400h1024v-400h-1024z" />
<glyph unicode="&#x2014;" horiz-adv-x="2148" d="M0 500v400h2048v-400h-2048z" />
<glyph unicode="&#x202f;" horiz-adv-x="360" />
<glyph unicode="&#x205f;" horiz-adv-x="450" />
<glyph unicode="&#x25fc;" horiz-adv-x="1700" d="M0 0v1700h1700v-1700h-1700z" />
</font>
</defs>
</svg>
