<?xml version="1.0" encoding="utf-8"?>
<!-- Generator: Adobe Illustrator 16.0.0, SVG Export Plug-In . SVG Version: 6.00 Build 0)  -->
<!DOCTYPE svg PUBLIC "-//W3C//DTD SVG 1.1//EN" "http://www.w3.org/Graphics/SVG/1.1/DTD/svg11.dtd">
<svg version="1.1" xmlns="http://www.w3.org/2000/svg" xmlns:xlink="http://www.w3.org/1999/xlink" x="0px" y="0px"
	 width="635.968px" height="400.479px" viewBox="0 0 635.968 400.479" enable-background="new 0 0 635.968 400.479"
	 xml:space="preserve">
<g id="Layer_1">
	<polygon fill="#424242" points="176.736,387.174 15.476,318.186 126.936,134.465 109.888,77.883 330.655,88.965 473.479,39.7 
		473.479,39.7 550.571,13.612 589.068,132.596 518.688,276.532 	"/>
	
		<linearGradient id="SVGID_1_" gradientUnits="userSpaceOnUse" x1="510.1816" y1="-65.6807" x2="176.7564" y2="167.8824" gradientTransform="matrix(0.9559 0.2937 -0.2937 0.9559 34.5402 16.6214)">
		<stop  offset="0" style="stop-color:#0056BC"/>
		<stop  offset="0.1097" style="stop-color:#0867C4"/>
		<stop  offset="0.3415" style="stop-color:#1684D1"/>
		<stop  offset="0.5703" style="stop-color:#219ADA"/>
		<stop  offset="0.7923" style="stop-color:#27A7E0"/>
		<stop  offset="1" style="stop-color:#29ABE2"/>
	</linearGradient>
	<polygon opacity="0.8" fill="url(#SVGID_1_)" points="109.888,77.883 540.156,99.484 518.688,276.532 171.981,283.979 	"/>
	
		<linearGradient id="SVGID_2_" gradientUnits="userSpaceOnUse" x1="391.9463" y1="209.355" x2="334.769" y2="127.7308" gradientTransform="matrix(0.9559 0.2937 -0.2937 0.9559 34.5402 16.6214)">
		<stop  offset="0" style="stop-color:#009245"/>
		<stop  offset="0.0209" style="stop-color:#0B9645"/>
		<stop  offset="0.0974" style="stop-color:#2DA343"/>
		<stop  offset="0.182" style="stop-color:#4BAE42"/>
		<stop  offset="0.275" style="stop-color:#63B741"/>
		<stop  offset="0.38" style="stop-color:#75BE40"/>
		<stop  offset="0.504" style="stop-color:#82C23F"/>
		<stop  offset="0.6652" style="stop-color:#8AC53F"/>
		<stop  offset="1" style="stop-color:#8CC63F"/>
	</linearGradient>
	<polygon fill="url(#SVGID_2_)" points="518.688,276.532 171.981,283.979 171.981,283.979 171.981,283.979 171.981,283.979 
		176.736,387.174 	"/>
	
		<linearGradient id="SVGID_3_" gradientUnits="userSpaceOnUse" x1="514.6904" y1="342.981" x2="595.7651" y2="92.3817" gradientTransform="matrix(0.9514 -0.3078 0.3078 0.9514 -41.2626 108.6422)">
		<stop  offset="0" style="stop-color:#791900"/>
		<stop  offset="0.0252" style="stop-color:#891C00"/>
		<stop  offset="0.0841" style="stop-color:#A82300"/>
		<stop  offset="0.1508" style="stop-color:#C42900"/>
		<stop  offset="0.2262" style="stop-color:#DA2E00"/>
		<stop  offset="0.3142" style="stop-color:#EB3200"/>
		<stop  offset="0.4232" style="stop-color:#F63400"/>
		<stop  offset="0.5759" style="stop-color:#FD3600"/>
		<stop  offset="1" style="stop-color:#FF3600"/>
	</linearGradient>
	<polygon opacity="0.6" fill="url(#SVGID_3_)" points="550.423,13.157 589.279,133.25 518.688,276.532 	"/>
	
		<linearGradient id="SVGID_4_" gradientUnits="userSpaceOnUse" x1="153.2871" y1="154.3042" x2="-10.5186" y2="154.3042" gradientTransform="matrix(0.9514 -0.3078 0.3078 0.9514 -41.2626 108.6422)">
		<stop  offset="0" style="stop-color:#0056BC"/>
		<stop  offset="0.1097" style="stop-color:#0867C4"/>
		<stop  offset="0.3415" style="stop-color:#1684D1"/>
		<stop  offset="0.5703" style="stop-color:#219ADA"/>
		<stop  offset="0.7923" style="stop-color:#27A7E0"/>
		<stop  offset="1" style="stop-color:#29ABE2"/>
	</linearGradient>
	<polygon opacity="0.8" fill="url(#SVGID_4_)" points="126.936,134.465 15.476,318.186 174.791,344.944 171.981,283.979 
		109.888,77.883 	"/>
	
		<linearGradient id="SVGID_5_" gradientUnits="userSpaceOnUse" x1="132.832" y1="274.4858" x2="-10.5186" y2="274.4858" gradientTransform="matrix(0.9514 -0.3078 0.3078 0.9514 -41.2626 108.6422)">
		<stop  offset="0" style="stop-color:#009245"/>
		<stop  offset="0.0209" style="stop-color:#0B9645"/>
		<stop  offset="0.0974" style="stop-color:#2DA343"/>
		<stop  offset="0.182" style="stop-color:#4BAE42"/>
		<stop  offset="0.275" style="stop-color:#63B741"/>
		<stop  offset="0.38" style="stop-color:#75BE40"/>
		<stop  offset="0.504" style="stop-color:#82C23F"/>
		<stop  offset="0.6652" style="stop-color:#8AC53F"/>
		<stop  offset="1" style="stop-color:#8CC63F"/>
	</linearGradient>
	<polygon fill="url(#SVGID_5_)" points="174.791,344.944 176.736,387.174 15.476,318.186 	"/>
	
		<linearGradient id="SVGID_6_" gradientUnits="userSpaceOnUse" x1="592.3779" y1="130.7505" x2="359.9346" y2="130.7505" gradientTransform="matrix(0.9514 -0.3078 0.3078 0.9514 -41.2626 108.6422)">
		<stop  offset="0" style="stop-color:#791900"/>
		<stop  offset="0.0666" style="stop-color:#881C00"/>
		<stop  offset="0.275" style="stop-color:#B32500"/>
		<stop  offset="0.4776" style="stop-color:#D42D00"/>
		<stop  offset="0.6703" style="stop-color:#EC3200"/>
		<stop  offset="0.849" style="stop-color:#FA3500"/>
		<stop  offset="1" style="stop-color:#FF3600"/>
	</linearGradient>
	<polygon opacity="0.6" fill="url(#SVGID_6_)" points="550.423,13.157 330.655,88.965 540.021,99.477 	"/>
</g>
<g id="Layer_2">
	<g>
		<path fill="#EAEAEA" d="M203.691,199.597l-10.896-38.273l-0.327,0.001c0.514,6.519,0.771,11.584,0.774,15.194l0.016,23.085
			l-12.724,0.009l-0.036-53.149l19.122-0.013l11.113,37.728h0.291l10.844-37.743l19.158-0.013l0.036,53.149l-13.196,0.009
			l-0.016-23.303c0-1.212,0.017-2.557,0.052-4.035s0.196-5.102,0.483-10.87h-0.327l-10.698,38.215L203.691,199.597z"/>
		<path fill="#EAEAEA" d="M285.123,199.542l-2.624-9.959l-17.268,0.012l-2.684,9.963l-15.777,0.011l17.305-53.379l19.158-0.013
			l17.594,53.355L285.123,199.542z M279.51,177.806l-2.296-8.723c-0.534-1.939-1.185-4.447-1.95-7.524
			c-0.766-3.078-1.27-5.282-1.513-6.615c-0.217,1.235-0.646,3.271-1.287,6.108c-0.641,2.835-2.061,8.423-4.26,16.762L279.51,177.806
			z"/>
		<path fill="#EAEAEA" d="M320.918,180.177l0.014,19.34l-14.359,0.01l-0.036-53.149l17.413-0.012
			c14.444-0.01,21.671,5.22,21.678,15.69c0.004,6.156-2.999,10.921-9.006,14.293l15.502,23.146l-16.286,0.012l-11.283-19.332
			L320.918,180.177z M320.911,169.38l2.69-0.002c5.017-0.003,7.523-2.223,7.521-6.658c-0.002-3.659-2.464-5.487-7.383-5.484
			l-2.836,0.002L320.911,169.38z"/>
		<path fill="#EAEAEA" d="M402.363,199.461l-16.214,0.012l-10.52-20.314l-4.252,2.547l0.012,17.777l-14.432,0.01l-0.036-53.149
			l14.432-0.01l0.016,23.084c0.727-1.431,2.19-3.697,4.395-6.801l11.149-16.294l15.705-0.011l-16.742,23.824L402.363,199.461z"/>
		<path fill="#EAEAEA" d="M427.448,199.445l-0.036-53.149l14.432-0.01l0.036,53.149L427.448,199.445z"/>
		<path fill="#EAEAEA" d="M453.368,199.427l-0.036-53.149l14.432-0.01l0.036,53.149L453.368,199.427z"/>
		<path fill="#EAEAEA" d="M479.288,199.41l-0.036-53.149l14.432-0.01l0.036,53.149L479.288,199.41z"/>
	</g>
	<g>
		<path fill="#E2E2E2" d="M325.052,240.994l-4.236,0.031l-0.164-22.285l-7.624,0.057l-0.026-3.635l19.482-0.144l0.026,3.635
			l-7.622,0.056L325.052,240.994z"/>
		<path fill="#E2E2E2" d="M351.307,240.801l-14.661,0.107l-0.19-25.92l14.661-0.107l0.026,3.581l-10.424,0.076l0.052,7.057
			l9.769-0.071l0.026,3.546l-9.769,0.071l0.06,8.138l10.424-0.076L351.307,240.801z"/>
		<path fill="#E2E2E2" d="M368.113,240.677l-7.675-21.591l-0.142,0.001c0.224,3.214,0.347,6.227,0.367,9.039l0.093,12.605
			l-3.847,0.028l-0.19-25.92l5.975-0.044l7.348,20.566l0.106-0.001l7.26-20.674l5.992-0.044l0.19,25.92l-4.077,0.03l-0.095-12.818
			c-0.009-1.288,0.011-2.967,0.061-5.035c0.05-2.069,0.097-3.322,0.141-3.76l-0.142,0.001l-7.624,21.668L368.113,240.677z"/>
		<path fill="#E2E2E2" d="M407.444,222.304c0.02,2.706-0.851,4.787-2.613,6.242c-1.762,1.455-4.281,2.195-7.555,2.219l-2.693,0.021
			l0.071,9.697l-4.237,0.031l-0.19-25.92l7.463-0.056c3.238-0.023,5.669,0.621,7.292,1.934
			C406.604,217.783,407.425,219.727,407.444,222.304z M394.557,227.222l2.25-0.017c2.175-0.017,3.768-0.407,4.779-1.17
			c1.011-0.765,1.51-1.95,1.498-3.558c-0.011-1.489-0.475-2.597-1.39-3.323c-0.916-0.727-2.336-1.082-4.263-1.068l-2.941,0.022
			L394.557,227.222z"/>
		<path fill="#E2E2E2" d="M412.754,240.349l-0.19-25.92l4.237-0.031l0.164,22.285l10.974-0.08l0.026,3.635L412.754,240.349z"/>
		<path fill="#E2E2E2" d="M448.512,240.086l-2.642-7.179l-9.91,0.072l-2.482,7.217l-4.468,0.033l9.506-26.098l4.61-0.034
			l9.889,25.955L448.512,240.086z M444.727,229.264l-2.481-7.039c-0.18-0.471-0.431-1.213-0.752-2.228
			c-0.32-1.015-0.542-1.758-0.663-2.229c-0.308,1.456-0.765,3.05-1.366,4.779l-2.29,6.772L444.727,229.264z"/>
		<path fill="#E2E2E2" d="M465.389,239.962l-4.237,0.031l-0.164-22.285l-7.623,0.056l-0.026-3.635l19.483-0.143l0.026,3.635
			l-7.623,0.056L465.389,239.962z"/>
		<path fill="#E2E2E2" d="M491.645,239.77l-14.661,0.107l-0.19-25.92l14.661-0.107l0.026,3.581l-10.424,0.076l0.052,7.057
			l9.769-0.071l0.026,3.546l-9.769,0.071l0.06,8.138l10.424-0.076L491.645,239.77z"/>
	</g>
	<g>
		<path fill="#515151" d="M365.402,341.303h4.459c2.008,0,3.482,0.342,4.424,1.023s1.412,1.712,1.412,3.09
			c0,0.941-0.287,1.726-0.861,2.352s-1.414,1.028-2.518,1.206v0.066c1.297,0.193,2.25,0.603,2.861,1.229
			c0.611,0.627,0.918,1.499,0.918,2.618c0,1.497-0.496,2.649-1.49,3.457c-0.992,0.808-2.4,1.212-4.225,1.212h-4.98V341.303z
			 M366.537,348.541h3.58c1.525,0,2.637-0.254,3.328-0.762c0.693-0.507,1.041-1.302,1.041-2.385c0-1.081-0.393-1.867-1.174-2.356
			s-1.947-0.733-3.496-0.733h-3.279V348.541z M366.537,349.542v7.014h3.824c3.008,0,4.514-1.223,4.514-3.668
			c0-2.23-1.586-3.346-4.758-3.346H366.537z"/>
		<path fill="#515151" d="M383.412,350.197l4.758-8.894h1.223l-5.414,9.972v6.281h-1.166v-6.192l-5.438-10.061h1.301
			L383.412,350.197z"/>
		<path fill="#515151" d="M404.734,357.556l-5.514-14.407h-0.09c0.104,1.142,0.156,2.498,0.156,4.068v10.339h-1.746v-16.253h2.846
			l5.148,13.407h0.088l5.191-13.407h2.824v16.253h-1.891v-10.472c0-1.201,0.053-2.505,0.156-3.913h-0.09l-5.557,14.385H404.734z"/>
		<path fill="#515151" d="M428.313,357.556l-2.023-5.169h-6.514l-2.002,5.169h-1.912l6.426-16.319h1.59l6.393,16.319H428.313z
			 M425.699,350.686l-1.889-5.036c-0.244-0.637-0.496-1.419-0.756-2.346c-0.164,0.712-0.396,1.494-0.701,2.346l-1.912,5.036H425.699
			z"/>
		<path fill="#515151" d="M434.393,350.797v6.759h-1.889v-16.253h4.457c1.994,0,3.467,0.382,4.42,1.146
			c0.951,0.764,1.428,1.912,1.428,3.446c0,2.149-1.09,3.602-3.268,4.357l4.412,7.304h-2.234l-3.936-6.759H434.393z M434.393,349.174
			h2.592c1.334,0,2.311-0.265,2.934-0.795s0.934-1.324,0.934-2.385c0-1.074-0.316-1.849-0.949-2.323
			c-0.635-0.475-1.652-0.712-3.053-0.712h-2.457V349.174z"/>
		<path fill="#515151" d="M458.85,341.303v10.517c0,1.853-0.561,3.31-1.678,4.369c-1.119,1.06-2.658,1.59-4.615,1.59
			c-1.955,0-3.469-0.534-4.541-1.602c-1.07-1.066-1.605-2.534-1.605-4.401v-10.473h1.891v10.605c0,1.356,0.369,2.397,1.111,3.124
			c0.74,0.727,1.83,1.09,3.268,1.09c1.371,0,2.428-0.365,3.168-1.096c0.742-0.729,1.111-1.776,1.111-3.141v-10.583H458.85z"/>
		<path fill="#515151" d="M468.154,357.556h-1.891v-14.574h-5.146v-1.679h12.184v1.679h-5.146V357.556z"/>
		<path fill="#515151" d="M488.088,357.556h-1.891v-7.648h-8.561v7.648h-1.889v-16.253h1.889v6.915h8.561v-6.915h1.891V357.556z"/>
		<path fill="#515151" d="M492.545,357.556v-16.253h1.889v16.253H492.545z"/>
		<path fill="#515151" d="M513.977,353.232c0,1.431-0.518,2.546-1.555,3.346c-1.039,0.801-2.447,1.201-4.225,1.201
			c-1.928,0-3.41-0.249-4.447-0.745v-1.823c0.668,0.282,1.393,0.504,2.18,0.667c0.785,0.163,1.563,0.245,2.334,0.245
			c1.26,0,2.209-0.239,2.846-0.718c0.637-0.478,0.955-1.143,0.955-1.995c0-0.563-0.111-1.024-0.338-1.384s-0.604-0.691-1.135-0.995
			c-0.529-0.304-1.336-0.648-2.418-1.034c-1.512-0.541-2.592-1.182-3.24-1.923s-0.973-1.708-0.973-2.901
			c0-1.253,0.471-2.249,1.412-2.99s2.186-1.112,3.734-1.112c1.617,0,3.102,0.297,4.459,0.89l-0.59,1.646
			c-1.342-0.563-2.645-0.845-3.912-0.845c-1.002,0-1.783,0.215-2.346,0.645c-0.564,0.43-0.846,1.026-0.846,1.79
			c0,0.563,0.104,1.024,0.313,1.384c0.207,0.359,0.557,0.689,1.049,0.989c0.494,0.3,1.248,0.632,2.264,0.995
			c1.703,0.607,2.877,1.26,3.518,1.956C513.656,351.216,513.977,352.12,513.977,353.232z"/>
		<path fill="#515151" d="M529.641,357.556h-1.889v-7.648h-8.561v7.648h-1.891v-16.253h1.891v6.915h8.561v-6.915h1.889V357.556z"/>
		<path fill="#515151" d="M544.314,357.556l-2.021-5.169h-6.516l-2,5.169h-1.912l6.426-16.319h1.588l6.393,16.319H544.314z
			 M541.703,350.686l-1.891-5.036c-0.244-0.637-0.496-1.419-0.756-2.346c-0.162,0.712-0.396,1.494-0.699,2.346l-1.912,5.036H541.703
			z"/>
		<path fill="#515151" d="M550.396,350.797v6.759h-1.891v-16.253h4.459c1.992,0,3.467,0.382,4.418,1.146
			c0.953,0.764,1.43,1.912,1.43,3.446c0,2.149-1.09,3.602-3.27,4.357l4.414,7.304h-2.234l-3.936-6.759H550.396z M550.396,349.174
			h2.59c1.334,0,2.313-0.265,2.936-0.795c0.621-0.53,0.934-1.324,0.934-2.385c0-1.074-0.316-1.849-0.951-2.323
			c-0.633-0.475-1.65-0.712-3.051-0.712h-2.457V349.174z"/>
		<path fill="#515151" d="M569.771,357.556l-5.514-14.407h-0.088c0.104,1.142,0.154,2.498,0.154,4.068v10.339h-1.744v-16.253h2.846
			l5.146,13.407h0.09l5.191-13.407h2.822v16.253h-1.889v-10.472c0-1.201,0.051-2.505,0.156-3.913h-0.09l-5.559,14.385H569.771z"/>
		<path fill="#515151" d="M593.35,357.556l-2.021-5.169h-6.516l-2,5.169H580.9l6.426-16.319h1.588l6.393,16.319H593.35z
			 M590.738,350.686l-1.891-5.036c-0.244-0.637-0.496-1.419-0.756-2.346c-0.162,0.712-0.396,1.494-0.699,2.346l-1.912,5.036H590.738
			z"/>
	</g>
</g>
</svg>
